# xmcd CD database file
#
# Track frame offsets:
#	187
#	27870
#	45722
#	57482
#	75672
#	102675
#	133520
#	174960
#	188707
#	216102
#	235887
#	248877
#
# Disc length: 3740 seconds
#
# Revision: 3
# Processed by: cddbd v1.5.2PL0 Copyright (c) Steve Scherf et al.
# Submitted via: CDex 1.70beta2
#
DISCID=a20e9a0c
DTITLE=Sonny Rollins - Best Selection
DYEAR=1994
DGENRE=Jazz
TTITLE0=ドント・ストップ・ザ・カーニヴァル
TTITLE1=セント・トーマス
TTITLE2=アイ・リメンバー・クリフォード
TTITLE3=ラウンド・ミッドナイト
TTITLE4=橋
TTITLE5=ユー・ドゥ・サムシング・トゥ・ミー
TTITLE6=夜は千の眼をもつ
TTITLE7=オータム・ノクターン
TTITLE8=マイ・ワン・アンド・オンリー・ラヴ
TTITLE9=イット・クッド・ハプン・トゥ・ユー
TTITLE10=ロング・アゴー
TTITLE11=アット・マッキーズ
EXTD=YEAR: 1994
EXTT0=
EXTT1=
EXTT2=
EXTT3=
EXTT4=
EXTT5=
EXTT6=
EXTT7=
EXTT8=
EXTT9=
EXTT10=
EXTT11=
PLAYORDER=
